<?xml version="1.0" encoding="UTF-8"?>
<svg xmlns="http://www.w3.org/2000/svg" viewBox="0 0 200 200">
<rect width="200" height="200" rx="24" fill="#080705"/>
<g transform="translate(143,18) scale(1.08)">
<path d="M0 0 C3.33600923 2.17781018 5.650778 4.1854731 7.875 7.5 C0.85454726 7.47068704 -3.33456535 6.10624782 -8.9921875 1.99609375 C-16.50193805 -3.27173493 -26.10404908 -4.32687726 -35.0546875 -3.09765625 C-45.31798239 -0.64086186 -54.19121751 4.66727034 -60.125 13.5 C-64.48265661 21.66070237 -66.2725861 28.14569342 -66.30200195 37.36425781 C-66.31185875 38.70648155 -66.31185875 38.70648155 -66.32191467 40.07582092 C-66.34161299 43.03492318 -66.35330254 45.99397476 -66.36328125 48.953125 C-66.36735678 49.9654998 -66.3714323 50.9778746 -66.37563133 52.02092743 C-66.39647724 57.37934667 -66.4107854 62.73774041 -66.42016602 68.09619141 C-66.43122761 73.62201432 -66.4656291 79.14743425 -66.50533772 84.67311478 C-66.53151894 88.93002049 -66.5398592 93.18683037 -66.54344749 97.44380951 C-66.54830948 99.48030062 -66.55991237 101.51678755 -66.57848549 103.55319977 C-66.60290887 106.40851028 -66.60190601 109.26278044 -66.5949707 112.11816406 C-66.61418579 113.37002251 -66.61418579 113.37002251 -66.63378906 114.64717102 C-66.58324495 120.38108696 -65.29938165 124.68769359 -62.125 129.5 C-58.71913119 132.47750181 -54.93015858 133.40282569 -50.5 133.9375 C-45.36772191 133.27220469 -42.28729285 131.78794613 -38.8125 127.9375 C-35.93416612 123.77990661 -35.97402365 120.65054783 -35.96728516 115.72070312 C-35.96220444 114.91717407 -35.95712372 114.11364502 -35.95188904 113.2857666 C-35.94117233 111.53643389 -35.93255727 109.78708736 -35.92576981 108.03773499 C-35.91398222 105.262348 -35.89452595 102.48711674 -35.87265015 99.71179199 C-35.81105626 91.81898244 -35.75714076 83.92618571 -35.72363281 76.03320312 C-35.70259087 71.20671704 -35.66720309 66.38050984 -35.62287521 61.55418396 C-35.60878052 59.72036543 -35.60000764 57.88649749 -35.59682083 56.05262756 C-35.57117942 42.70020107 -35.15183985 31.17191815 -26.125 20.5 C-20.24508013 15.07034427 -13.12724388 12.62769538 -5.125 12.5 C3.47993324 13.36323375 10.70976866 15.87208581 16.6875 22.25 C22.58037846 29.45837297 23.9869956 37.55010296 24.03613281 46.67016602 C24.04358017 47.72499428 24.04358017 47.72499428 24.05117798 48.8011322 C24.06573383 51.1187337 24.0725927 53.43626662 24.078125 55.75390625 C24.08236607 56.94917592 24.08236607 56.94917592 24.08669281 58.16859245 C24.10166355 62.39047449 24.11090472 66.61232257 24.11523438 70.83422852 C24.12069742 75.16571749 24.14468536 79.4968887 24.17320633 83.82827854 C24.19196729 87.18376018 24.19704554 90.53916757 24.19857025 93.89469719 C24.20157008 95.48967146 24.20950665 97.08464527 24.22275543 98.67956734 C24.35824949 116.25355686 21.15062383 131.09198303 8.8125 144.375 C-2.96898011 155.49113481 -16.76890906 159.16466246 -32.57421875 158.8125 C-43.66639895 158.25731267 -55.16837489 153.92868465 -62.75 145.625 C-63.20375 144.92375 -63.6575 144.2225 -64.125 143.5 C-57.78061983 143.7463837 -53.93422087 144.07045446 -49.125 148.5 C-40.27882869 153.83853911 -30.85428009 155.93268587 -20.6171875 154.03515625 C-10.61964715 151.38690497 -1.95018647 146.15625673 3.875 137.5 C8.40741173 129.11798142 10.02114749 122.11936746 10.05200195 112.70581055 C10.05857315 111.83035583 10.06514435 110.95490112 10.07191467 110.05291748 C10.09157829 107.1641836 10.10329376 104.27550151 10.11328125 101.38671875 C10.11735678 100.39732615 10.1214323 99.40793354 10.12563133 98.38855934 C10.14646083 93.15332882 10.16077697 87.91812428 10.17016602 82.68286133 C10.18123394 77.28597845 10.21564741 71.88950745 10.25533772 66.4927702 C10.28151979 62.33280181 10.28985919 58.17293148 10.29344749 54.01288795 C10.29830799 52.02384466 10.30990659 50.03480559 10.32848549 48.04584312 C10.35291452 45.25768973 10.35190525 42.47060139 10.3449707 39.68237305 C10.35778076 38.86807327 10.37059082 38.0537735 10.38378906 37.21479797 C10.33262147 31.54480484 9.03399008 27.24457306 5.875 22.5 C2.23387995 19.03649556 -0.38700278 17.6311696 -5.4375 17.25 C-10.66498394 17.60440569 -13.72640945 19.06255971 -17.375 22.8125 C-20.92858874 28.269797 -21.41245157 33.4471337 -21.36450195 39.82519531 C-21.36651611 40.63906204 -21.36853027 41.45292877 -21.37060547 42.29145813 C-21.37413861 44.05109569 -21.37339919 45.81074599 -21.36882973 47.57038116 C-21.36321115 50.36296593 -21.37243759 53.15513922 -21.3860321 55.94769287 C-21.42304831 63.88490644 -21.44172776 71.82197976 -21.43041992 79.75927734 C-21.42454276 84.62288016 -21.44295554 89.48590348 -21.47630882 94.34938812 C-21.48422256 96.19438812 -21.48304092 98.03945195 -21.47228432 99.88443756 C-21.36985515 118.24643248 -21.36985515 118.24643248 -27.125 126.5 C-27.99125 127.8921875 -27.99125 127.8921875 -28.875 129.3125 C-34.31845078 134.60474381 -41.52546584 138.01617873 -49.125 138.5 C-58.72853224 138.12971455 -65.77659115 135.71402671 -72.6796875 128.984375 C-79.15450578 121.7049935 -80.23676956 114.44147735 -80.28613281 105.0168457 C-80.29358017 103.93012825 -80.29358017 103.93012825 -80.30117798 102.82145691 C-80.31570657 100.43955512 -80.3225868 98.05771996 -80.328125 95.67578125 C-80.33095238 94.8565386 -80.33377975 94.03729595 -80.33669281 93.19322777 C-80.35164957 88.85578467 -80.36090057 84.51837452 -80.36523438 80.1809082 C-80.37070668 75.72716447 -80.39471847 71.27372834 -80.42320633 66.82008076 C-80.4419417 63.37199558 -80.44704412 59.92398281 -80.44857025 56.47585106 C-80.45157393 54.83539338 -80.45952405 53.19493626 -80.47275543 51.55452919 C-80.60087178 34.44677901 -77.62659354 20.54525769 -65.5 7.8203125 C-47.6703147 -9.59882084 -21.45437532 -13.0408948 0 0 Z " fill="#C9A962"/>
</g>
</svg>
